<?xml version="1.0" encoding="UTF-8"?><svg id="a" xmlns="http://www.w3.org/2000/svg" viewBox="0 0 114.76 133.12"><defs><style>.b{fill:#fff;}.c{fill:#d44b6d;}.d{fill:#231f20;stroke:#231f20;stroke-miterlimit:10;stroke-width:.41px;}</style></defs><polygon class="d" points="57.14 .24 .21 33.08 .21 100.04 57.14 132.88 99.89 108.22 114.56 99.7 114.56 89.37 114.56 33.37 57.14 .24"/><polygon class="b" points="88.03 101.32 90.99 103.04 96.93 106.5 99.89 108.22 96.93 109.93 93.97 111.64 90.98 113.35 88.02 115.06 85.04 116.77 82.08 118.48 79.11 120.21 76.13 121.92 73.31 123.56 70.35 125.27 68.89 126.1 67.37 126.98 66.18 127.66 64.39 128.69 59.83 131.32 57.14 132.88 54.43 131.32 50.9 129.3 48.28 127.78 48.08 127.66 45.68 126.28 45.37 126.1 43.11 124.79 43.05 124.76 40.49 123.29 37.87 121.77 35.25 120.27 32.65 118.75 32.64 118.75 30.02 117.25 27.46 115.76 27.41 115.75 24.84 114.26 22.22 112.74 19.68 111.29 19.6 111.24 17.06 109.77 14.46 108.27 11.84 106.75 11.81 106.75 9.19 105.23 6.59 103.73 3.95 102.21 3 101.66 1.43 100.74 .21 100.04 .21 93.89 .21 88.26 .21 87.92 .21 63.57 .21 33.08 3 31.46 3.08 31.42 6.05 29.71 9.01 28 11.99 26.27 14.96 24.56 14.98 24.55 17.95 22.83 20.93 21.12 23.89 19.41 26.86 17.7 29.82 15.99 29.84 15.99 32.81 14.27 35.77 12.56 44.57 7.48 44.58 7.48 45.37 7.02 48.08 5.46 52.06 3.15 54.41 1.8 57.14 .24 57.91 .68 59.84 1.8 60.53 2.2 63.15 3.7 65.76 5.22 65.78 5.22 66.18 5.46 68.4 6.74 68.89 7.02 71.01 8.24 73.63 9.76 73.65 9.77 76.27 11.28 78.81 12.75 81.43 14.25 84.05 15.77 86.66 17.27 86.69 17.29 89.3 18.8 91.91 20.31 94.46 21.78 94.53 21.82 97.08 23.28 99.68 24.78 102.25 26.27 102.3 26.3 104.87 27.77 107.49 29.29 110.11 30.79 111.77 31.76 112.73 32.31 114.56 33.37 114.56 89.37 111.58 87.65 105.63 84.18 102.66 82.46 102.66 79.02 102.66 40.24 102.36 40.06 99.74 38.56 97.12 37.04 94.55 35.57 94.5 35.54 91.93 34.05 89.33 32.55 86.78 31.08 86.71 31.03 84.16 29.57 81.55 28.06 78.94 26.55 78.91 26.54 76.3 25.02 73.68 23.52 71.06 22 68.53 20.54 65.91 19.03 65.88 19.01 63.26 17.51 60.65 15.99 58.03 14.49 58.01 14.47 57.14 13.97 52.15 16.85 52.12 16.87 47.63 19.46 44.67 21.17 44.65 21.17 41.69 22.88 38.72 24.59 37.14 25.51 32.78 24.59 35.39 23.09 35.76 22.88 35.77 22.88 38.73 21.17 41.71 19.44 42.66 18.89 42.68 18.89 44.67 17.73 50.19 14.55 50.2 14.55 57.14 10.55 57.33 10.65 59.95 12.17 59.96 12.18 62.58 13.69 65.2 15.2 67.82 16.71 67.83 16.72 70.45 18.24 72.99 19.7 75.61 21.21 78.23 22.72 80.85 24.23 80.88 24.25 83.48 25.75 86.1 27.25 88.64 28.73 88.72 28.77 91.26 30.23 93.86 31.74 96.44 33.23 96.48 33.25 99.06 34.73 101.67 36.24 104.29 37.75 105.63 38.53 105.63 80.75 111.58 84.21 111.58 56.77 111.64 56.69 111.58 56.66 111.58 35.09 110.78 34.63 108.16 33.13 108.16 33.11 105.54 31.61 102.94 30.09 100.36 28.62 100.32 28.59 97.75 27.1 95.13 25.6 92.6 24.14 92.52 24.08 92.51 24.08 89.98 22.63 87.36 21.11 84.74 19.61 84.72 19.59 82.1 18.07 79.49 16.57 76.88 15.07 74.33 13.6 71.71 12.09 71.7 12.08 71.68 12.08 69.07 10.56 66.46 9.06 66.45 9.06 63.84 7.54 63.81 7.53 61.2 6.02 58.59 4.51 57.14 3.67 53.79 5.61 53.77 5.61 46.5 9.82 46.45 9.85 39.02 14.13 38.99 14.15 38.73 14.28 35.77 15.99 32.8 17.72 29.84 19.43 26.86 21.14 20.91 24.56 17.95 26.27 17.94 26.27 17.92 26.29 14.96 28 11.99 29.72 9.01 31.43 6.04 33.14 3.18 34.79 3.18 61.59 3.18 62.28 3.18 75.38 3.18 76.04 3.18 89.33 3.18 89.64 3.18 98.33 3.36 98.43 5.9 99.89 8.52 101.41 11.12 102.91 13.76 104.43 13.77 104.44 19.01 107.45 21.55 108.92 21.63 108.96 24.16 110.42 26.79 111.94 29.35 113.43 29.39 113.44 31.97 114.93 34.58 116.45 37.2 117.95 39.81 119.45 42.42 120.97 45 122.44 45.04 122.47 47.62 123.96 50.22 125.46 52.84 126.98 52.85 126.98 57.14 129.45 61.43 126.96 64.41 125.25 67.38 123.54 70.35 121.83 73.17 120.2 76.15 118.48 79.12 116.77 82.08 115.06 85.06 113.34 88.02 111.63 91.01 109.92 93.97 108.21 88.05 104.75 88.03 104.75 85.07 106.47 82.1 108.19 79.12 109.89 76.15 111.61 73.2 113.32 73.19 113.32 70.21 115.03 67.24 116.74 64.41 118.38 61.45 120.09 58.47 121.8 57.14 122.58 56.72 122.34 54.1 120.82 51.5 119.32 48.92 117.85 48.86 117.82 46.31 116.33 43.69 114.83 41.08 113.31 41.07 113.31 38.45 111.81 35.85 110.29 33.27 108.82 33.23 108.79 30.66 107.31 28.04 105.8 25.49 104.32 25.5 104.32 25.43 104.28 25.42 104.29 22.88 102.82 20.27 101.32 17.66 99.8 17.63 99.8 15.01 98.28 12.39 96.78 9.77 95.26 9.13 94.89 9.13 72.94 9.31 72.73 9.28 72.71 9.13 72.62 9.13 58.98 9.21 58.89 9.13 58.85 9.13 38.23 11.97 36.59 14.95 34.88 17.91 33.17 20.88 31.45 23.86 29.74 23.87 29.72 26.85 28.01 26.85 31.45 26.83 31.45 26.82 31.46 23.86 33.17 22.34 34.05 20.88 34.9 14.93 38.32 12.11 39.96 12.11 60.07 11.82 60.41 11.81 60.43 12.11 60.59 12.11 74.02 11.93 74.24 12.11 74.35 12.11 93.18 14.32 94.46 16.94 95.96 17.78 96.45 20.7 98.13 22.21 99 24.81 100.5 25.95 101.16 28.9 102.86 29.97 103.48 31.21 104.19 35.2 106.49 35.21 106.5 37.39 107.75 37.39 107.76 37.78 107.98 40.4 109.49 43.02 111 45.62 112.51 48.24 114.01 50.81 115.49 50.86 115.52 53.43 117 56.03 118.51 56.05 118.51 57.14 119.14 58.47 118.37 61.45 116.66 61.46 116.67 61.51 116.61 61.52 116.61 64.28 115.02 67.24 113.31 70.23 111.6 73.19 109.89 76.16 108.16 79.12 106.45 82.11 104.74 85.06 103.03 88.03 101.32"/><g><path class="c" d="M53.17,29.57l-1.93,2.31-2.62-1.52-2.6-1.52h-.01l-1.39-.82-1.03,1.21-1.21-.7-.92,1.11-2.6-1.52-8.98-1.81h-.02l1.91,1.12,1.03,.59,1.52,.88,2.62,1.52,2.6,1.52,2.6,1.52,1.93-2.31h.01l2.62,1.53,2.6,1.52,2.62,1.52,1.93-2.32,1.93-2.31,1.95-2.32c-1.51-.88-3.44-.55-4.56,.8Z"/><polyline class="c" points="78.57 54.65 74.7 59.29 77.26 60.78"/><path class="c" d="M49.9,42.81l-.06,.07c-.58,.69-.39,1.73,.38,2.18h0c.61,.35,1.38,.22,1.83-.33l.06-.07c.57-.69,.39-1.72-.38-2.17-.61-.35-1.38-.22-1.83,.32Z"/><path class="c" d="M42.8,47.97h0c.61,.35,1.38,.22,1.83-.33l.06-.07c.57-.69,.39-1.72-.38-2.17-.61-.35-1.38-.22-1.83,.32l-.06,.07c-.58,.69-.39,1.73,.38,2.18Z"/><path class="c" d="M43.2,44.73h0c.61,.35,1.38,.22,1.83-.33l.06-.07c.57-.69,.39-1.72-.38-2.17-.61-.35-1.38-.22-1.83,.32l-.06,.07c-.58,.69-.39,1.73,.38,2.18Z"/><polygon class="c" points="56.48 34.93 54.55 37.25 57.08 38.72 59.02 36.4 60.96 34.1 58.41 32.61 56.48 34.93"/><path class="c" d="M45.3,97.09h0c.62,.36,1.4,.22,1.86-.32l.03-.04c.58-.69,.39-1.74-.39-2.2-.61-.36-1.4-.22-1.85,.32l-.03,.04c-.58,.69-.4,1.74,.38,2.2Z"/><path class="c" d="M30.42,92.33h0c.62,.36,1.4,.22,1.86-.32l.03-.04c.58-.69,.39-1.74-.39-2.2-.61-.36-1.4-.22-1.85,.32l-.03,.04c-.58,.69-.4,1.74,.38,2.2Z"/><path class="c" d="M58.23,90.85h0c.62,.36,1.4,.22,1.86-.32l.03-.04c.58-.69,.39-1.74-.39-2.2-.61-.36-1.4-.22-1.85,.32l-.03,.04c-.58,.69-.4,1.74,.38,2.2Z"/><path class="c" d="M62.68,89.95h0c.62,.36,1.4,.22,1.86-.32l.03-.04c.58-.69,.39-1.74-.39-2.2-.61-.36-1.4-.22-1.85,.32l-.03,.04c-.58,.69-.4,1.74,.38,2.2Z"/><polygon class="c" points="99.77 97.99 96.81 96.26 84.52 89.12 81.9 87.59 79.3 86.09 76.74 84.58 76.68 84.55 74.12 83.07 71.52 81.55 68.92 80.03 66.3 78.51 64.45 80.73 67.07 82.25 69.68 83.77 72.28 85.28 74.84 86.77 74.9 86.8 77.46 88.29 80.06 89.8 82.68 91.32 93.97 97.9 96.94 99.62 102.86 103.07 105.82 104.8 105.84 104.8 108.66 103.16 105.7 101.44 99.77 97.99"/><path class="c" d="M59.24,29.66c.62,.36,1.42,.22,1.88-.33,.59-.7,.4-1.77-.39-2.23h-.01c-.62-.37-1.42-.23-1.88,.32h0c-.59,.7-.4,1.77,.39,2.23h.01Z"/><path class="c" d="M63.67,28.93c.62,.36,1.42,.22,1.88-.33,.59-.7,.4-1.77-.39-2.23h-.01c-.62-.37-1.42-.23-1.88,.32h0c-.59,.7-.4,1.77,.39,2.23h.01Z"/><path class="c" d="M45.56,98.68h0c-.59,.71-.41,1.79,.39,2.25,.63,.36,1.43,.22,1.89-.33h0c.59-.71,.4-1.78-.39-2.24-.63-.36-1.42-.23-1.89,.33Z"/><polygon class="c" points="52.17 90.77 50.23 93.09 52.85 94.61 56.72 89.96 54.12 88.45 52.17 90.77"/><path class="c" d="M45.07,90.07l-.03,.04c-.99,1.19-.68,2.99,.66,3.78l1.93-2.32,3.88-4.64h0l1.92-2.3h.01l.03,.03h.01l2.56,1.49,1.93-2.31-2.57-1.49-.04-.03-2.56-1.49-2.62-1.52-2.53-1.47-.07-.04-2.53-1.49-1.93,2.31h0l-1.93,2.32-1.95,2.32-1.92,2.31,2.53,1.47,.07,.04-1.93,2.32-1.93,2.31-1.95,2.34-.07-.04c-1.46-.86-3.32-.53-4.41,.77l-.06,.07,2.53,1.47,.07,.04,2.53,1.47,1.93-2.32,1.95-2.32,1.93-2.31,1.93-2.32,1.93-2.31-2.53-1.47-.07-.04,1.95-2.32,1.92-2.31h.01l.06,.04h.01l2.51,1.47h.01l2.6,1.52-1.43,1.71-.5,.59h0l-3.66,4.37-.21,.25Z"/><polygon class="c" points="50.32 106.9 52.93 108.41 54.86 106.11 56.79 103.79 56.81 103.79 58.73 101.47 60.68 99.16 58.06 97.64 55.45 96.13 52.85 94.61 50.9 96.93 53.52 98.45 56.12 99.96 54.19 102.27 52.26 104.59 49.64 103.07 47.03 101.56 45.1 103.86 47.7 105.38 50.32 106.9"/><path class="c" d="M69.04,75.16h0c.59-.71,.41-1.79-.39-2.25-.63-.36-1.43-.22-1.89,.33h0c-.59,.71-.4,1.78,.39,2.24,.63,.36,1.42,.23,1.89-.33Z"/><path class="c" d="M73.54,74.43h0c.59-.71,.41-1.79-.39-2.25-.63-.36-1.43-.22-1.89,.33h0c-.59,.71-.4,1.78,.39,2.24h0c.63,.36,1.42,.23,1.89-.33Z"/><path class="c" d="M62.6,76.33c.63,.36,1.42,.23,1.89-.33h0c.59-.71,.41-1.79-.39-2.25-.63-.36-1.43-.22-1.89,.33h0c-.59,.71-.4,1.78,.39,2.24Z"/><path class="c" d="M59.79,54.08l1.93-2.31-2.6-1.52h-.03l-2.62-1.53-.57,.68-1.37,1.63-1.93,2.32-1.93,2.31-1.95,2.32-1.92,2.31-2.6-1.5-1.4-.81,.04-.02,2.02-9.11c-1.28-.75-2.92-.02-3.23,1.43l-1.98,9.3,2.62,1.52,2.6,1.52,2.6,1.52,1.95-2.31,1.92-2.31,1.95-2.32,1.93-2.32,2.63,1.53-1.93,2.32-1.95,2.32,2.6,1.5-1.92,2.32-1.93,2.31,2.53,1.47,.07,.04-1.93,2.32-.07-.04-2.54-1.47-2.6-1.52-.12-.07c-1.43-.83-3.26-.52-4.32,.75l-1.95,2.32-1.93,2.32-1.92,2.31h-.01l-1.92,2.31-1.95,2.32-1.93,2.31-1.93,2.32c-1.01,1.2-.69,3.03,.67,3.82h0l1.93-2.3,1.93-2.32,1.93-2.31,1.95-2.32,1.93-2.31,1.92-2.31,1.95-2.32,1.93-2.32,2.6,1.52,2.54,1.47,.07,.04,2.53,1.47,2.6,1.52,1.84-2.2-2.6-1.52,1.93-2.32,1.93-2.31-2.53-1.47-.07-.04,1.93-2.31,1.93-2.32-2.53-1.47,3.87-4.64-2.6-1.51Z"/><polygon class="c" points="105.63 91.08 102.66 89.34 90.32 82.17 87.71 80.66 85.1 79.14 82.54 77.65 82.48 77.62 79.94 76.13 77.32 74.62 77.23 74.56 75.31 76.87 75.4 76.92 78.01 78.44 80.56 79.93 80.61 79.96 83.18 81.44 85.79 82.96 88.39 84.48 102.66 92.78 105.63 94.51 111.58 97.97 114.56 99.7 114.56 96.28 111.58 94.55 105.63 91.08"/><g><path class="c" d="M26.85,28.01l.37,.21,2.59,1.52h.01l2.53,1.49,2.62,1.52,2.62,1.52,2.6,1.52h.01l2.62,1.53,2.6,1.52c1.37,.79,1.69,2.63,.67,3.83h0l-5.21-3.03-2.62-1.53h-.03l-2.6-1.52-2.6-1.52-2.62-1.53-2.53-1.47-1.04-.61h-.03l.03-3.44Z"/><path class="c" d="M88.03,101.32l-9.55-5.55-5.21-3.03-2.57-1.49-.04-.03-2.56-1.49-1.93,2.31,2.56,1.49,.04,.03h.01l2.56,1.49,2.6,1.52,2.62,1.52c2.73,1.59,5.77,3.37,8.49,4.96l2.98-1.71Z"/></g><g><polygon class="c" points="67.42 30.97 64.82 29.46 62.89 31.76 65.51 33.28 67.42 30.97"/><polygon class="c" points="96.14 75.23 93.52 73.71 90.92 72.19 88.36 70.7 88.31 70.66 88.3 70.66 85.76 69.19 85.74 69.19 83.14 67.67 85.07 65.35 85.09 65.33 87.02 63.03 84.42 61.51 81.8 59.98 79.2 58.46 81.14 56.16 83.06 53.84 85.01 51.51 82.45 50.03 82.41 50 79.84 48.51 77.23 46.99 79.17 44.69 81.1 42.37 78.57 40.89 78.5 40.85 75.97 39.38 73.35 37.86 70.75 36.34 70.72 36.33 68.11 34.81 65.51 33.29 62.89 31.77 60.96 34.1 63.56 35.61 66.17 37.12 68.78 38.65 68.81 38.66 71.42 40.18 74.02 41.7 76.56 43.17 76.64 43.21 74.7 45.52 72.75 47.84 75.28 49.31 77.9 50.83 80.46 52.32 80.51 52.35 78.57 54.65 74.7 59.29 77.26 60.78 79.87 62.3 82.48 63.82 82.47 63.83 80.53 66.15 78.6 68.46 83.81 71.49 86.37 72.98 86.43 73.01 88.98 74.5 91.59 76.01 94.21 77.53 102.66 82.46 102.66 79.02 96.14 75.23"/></g></g></svg>